HIERARCHY
ROOT reference
{
  OFFSET -65.3212 -1.93545 -120.338
  CHANNELS 6 Xposition Yposition Zposition Zrotation Xrotation Yrotation
  JOINT Hips
  {
    OFFSET 0 78.7191 0
    CHANNELS 3 Zrotation Xrotation Yrotation
    JOINT Chest
    {
      OFFSET 0 8.7983 -4.7612
      CHANNELS 3 Zrotation Xrotation Yrotation
      JOINT Chest2
      {
        OFFSET 0 8.0291 0.4195
        CHANNELS 3 Zrotation Xrotation Yrotation
        JOINT Chest3
        {
          OFFSET 0 9.9351 -2.2114
          CHANNELS 3 Zrotation Xrotation Yrotation
          JOINT Neck
          {
            OFFSET 0 22.3885 -0.4656
            CHANNELS 3 Zrotation Xrotation Yrotation
            JOINT Head
            {
              OFFSET -0.0001 12.643 3.4389
              CHANNELS 3 Zrotation Xrotation Yrotation
              End Site
              {
                OFFSET 0.0001 17.6655 0.5274
              }
            }
          }
          JOINT LeftCollar
          {
            OFFSET 2.2603 21.606 7.4023
            CHANNELS 3 Zrotation Xrotation Yrotation
            JOINT LeftShoulder
            {
              OFFSET 13.5163 -1.1332 -5.0146
              CHANNELS 3 Zrotation Xrotation Yrotation
              JOINT LeftElbow
              {
                OFFSET -0.0995 -28.05 -0.2431
                CHANNELS 3 Zrotation Xrotation Yrotation
                JOINT LeftWrist
                {
                  OFFSET 0.0679 -23.3996 -0.1402
                  CHANNELS 3 Zrotation Xrotation Yrotation
                  JOINT LeftFinger1
                  {
                    OFFSET 0.7932 -9.069 2.5189
                    CHANNELS 3 Zrotation Xrotation Yrotation
                    JOINT LeftFinger11
                    {
                      OFFSET -0.8272 -3.3923 0.5977
                      CHANNELS 3 Zrotation Xrotation Yrotation
                      JOINT LeftFinger12
                      {
                        OFFSET -0.5649 -2.3158 0.4082
                        CHANNELS 3 Zrotation Xrotation Yrotation
                        End Site
                        {
                          OFFSET -0.4919 -1.6479 0.2673
                        }
                      }
                    }
                  }
                  JOINT LeftFinger2
                  {
                    OFFSET 0.9159 -9.2044 0.2193
                    CHANNELS 3 Zrotation Xrotation Yrotation
                    JOINT LeftFinger21
                    {
                      OFFSET 0.0117 -4.1944 -0.0248
                      CHANNELS 3 Zrotation Xrotation Yrotation
                      JOINT LeftFinger22
                      {
                        OFFSET 0.0071 -2.3249 -0.0142
                        CHANNELS 3 Zrotation Xrotation Yrotation
                        End Site
                        {
                          OFFSET -0.1475 -2.0882 0.0028
                        }
                      }
                    }
                  }
                  JOINT LeftFinger3
                  {
                    OFFSET 0.6113 -8.7231 -2.0637
                    CHANNELS 3 Zrotation Xrotation Yrotation
                    JOINT LeftFinger31
                    {
                      OFFSET -0.1927 -3.8059 -0.2383
                      CHANNELS 3 Zrotation Xrotation Yrotation
                      JOINT LeftFinger32
                      {
                        OFFSET -0.1091 -2.1688 -0.1362
                        CHANNELS 3 Zrotation Xrotation Yrotation
                        End Site
                        {
                          OFFSET -0.2358 -1.9176 -0.0906
                        }
                      }
                    }
                  }
                  JOINT LeftFinger4
                  {
                    OFFSET -0.6151 -8.0947 -3.5641
                    CHANNELS 3 Zrotation Xrotation Yrotation
                    JOINT LeftFinger41
                    {
                      OFFSET -0.4882 -2.341 -0.6462
                      CHANNELS 3 Zrotation Xrotation Yrotation
                      JOINT LeftFinger42
                      {
                        OFFSET -0.3575 -1.7167 -0.4742
                        CHANNELS 3 Zrotation Xrotation Yrotation
                        End Site
                        {
                          OFFSET -0.4187 -1.5237 -0.3496
                        }
                      }
                    }
                  }
                  JOINT LeftFinger0
                  {
                    OFFSET -1.42 -1.8761 1.4223
                    CHANNELS 3 Zrotation Xrotation Yrotation
                    JOINT LeftFinger01
                    {
                      OFFSET -1.1471 -3.4929 2.6334
                      CHANNELS 3 Zrotation Xrotation Yrotation
                      JOINT LeftFinger02
                      {
                        OFFSET -0.823 -2.3 1.6571
                        CHANNELS 3 Zrotation Xrotation Yrotation
                        End Site
                        {
                          OFFSET -0.5822 -1.6914 1.1582
                        }
                      }
                    }
                  }
                }
              }
            }
          }
          JOINT RightCollar
          {
            OFFSET -2.2603 21.606 7.4023
            CHANNELS 3 Zrotation Xrotation Yrotation
            JOINT RightShoulder
            {
              OFFSET -13.5187 -1.1334 -5.0155
              CHANNELS 3 Zrotation Xrotation Yrotation
              JOINT RightElbow
              {
                OFFSET 0.0994 -28.0499 -0.2431
                CHANNELS 3 Zrotation Xrotation Yrotation
                JOINT RightWrist
                {
                  OFFSET -0.0679 -23.3996 -0.1402
                  CHANNELS 3 Zrotation Xrotation Yrotation
                  JOINT RightFinger1
                  {
                    OFFSET -0.7932 -9.0691 2.5189
                    CHANNELS 3 Zrotation Xrotation Yrotation
                    JOINT RightFinger11
                    {
                      OFFSET 0.8272 -3.3923 0.5977
                      CHANNELS 3 Zrotation Xrotation Yrotation
                      JOINT RightFinger12
                      {
                        OFFSET 0.565 -2.3158 0.4082
                        CHANNELS 3 Zrotation Xrotation Yrotation
                        End Site
                        {
                          OFFSET 0.4919 -1.6479 0.2673
                        }
                      }
                    }
                  }
                  JOINT RightFinger2
                  {
                    OFFSET -0.916 -9.2044 0.2193
                    CHANNELS 3 Zrotation Xrotation Yrotation
                    JOINT RightFinger21
                    {
                      OFFSET -0.0117 -4.1944 -0.0248
                      CHANNELS 3 Zrotation Xrotation Yrotation
                      JOINT RightFinger22
                      {
                        OFFSET -0.0071 -2.3249 -0.0142
                        CHANNELS 3 Zrotation Xrotation Yrotation
                        End Site
                        {
                          OFFSET 0.1475 -2.0882 0.0028
                        }
                      }
                    }
                  }
                  JOINT RightFinger3
                  {
                    OFFSET -0.6113 -8.7231 -2.0637
                    CHANNELS 3 Zrotation Xrotation Yrotation
                    JOINT RightFinger31
                    {
                      OFFSET 0.1927 -3.8059 -0.2383
                      CHANNELS 3 Zrotation Xrotation Yrotation
                      JOINT RightFinger32
                      {
                        OFFSET 0.1091 -2.1688 -0.1362
                        CHANNELS 3 Zrotation Xrotation Yrotation
                        End Site
                        {
                          OFFSET 0.2358 -1.9176 -0.0906
                        }
                      }
                    }
                  }
                  JOINT RightFinger4
                  {
                    OFFSET 0.6151 -8.0947 -3.564
                    CHANNELS 3 Zrotation Xrotation Yrotation
                    JOINT RightFinger41
                    {
                      OFFSET 0.4882 -2.341 -0.6462
                      CHANNELS 3 Zrotation Xrotation Yrotation
                      JOINT RightFinger42
                      {
                        OFFSET 0.3574 -1.7166 -0.4742
                        CHANNELS 3 Zrotation Xrotation Yrotation
                        End Site
                        {
                          OFFSET 0.4187 -1.5237 -0.3496
                        }
                      }
                    }
                  }
                  JOINT RightFinger0
                  {
                    OFFSET 1.4199 -1.8761 1.4221
                    CHANNELS 3 Zrotation Xrotation Yrotation
                    JOINT RightFinger01
                    {
                      OFFSET 1.1472 -3.4929 2.6336
                      CHANNELS 3 Zrotation Xrotation Yrotation
                      JOINT RightFinger02
                      {
                        OFFSET 0.8229 -2.3 1.6571
                        CHANNELS 3 Zrotation Xrotation Yrotation
                        End Site
                        {
                          OFFSET 0.5822 -1.6914 1.1582
                        }
                      }
                    }
                  }
                }
              }
            }
          }
        }
      }
    }
    JOINT RightHip
    {
      OFFSET -9.412 3.9771 -0.7758
      CHANNELS 3 Zrotation Xrotation Yrotation
      JOINT RightKnee
      {
        OFFSET -0.7531 -40.938 0
        CHANNELS 3 Zrotation Xrotation Yrotation
        JOINT RightAnkle
        {
          OFFSET 0 -40.1986 0
          CHANNELS 3 Zrotation Xrotation Yrotation
          JOINT RightToe
          {
            OFFSET 0 -4.4182 9.239
            CHANNELS 3 Zrotation Xrotation Yrotation
            End Site
            {
              OFFSET 0 0 6.1981
            }
          }
        }
      }
    }
    JOINT LeftHip
    {
      OFFSET 9.4119 3.9773 -0.7758
      CHANNELS 3 Zrotation Xrotation Yrotation
      JOINT LeftKnee
      {
        OFFSET 0.7532 -40.9383 0
        CHANNELS 3 Zrotation Xrotation Yrotation
        JOINT LeftAnkle
        {
          OFFSET 0 -40.1986 0
          CHANNELS 3 Zrotation Xrotation Yrotation
          JOINT LeftToe
          {
            OFFSET 0 -4.4182 9.239
            CHANNELS 3 Zrotation Xrotation Yrotation
            End Site
            {
              OFFSET 0 0 6.1981
            }
          }
        }
      }
    }
  }
}
MOTION
Frames:	5
Frame Time:	0.0333333
277.049 -0.0909348 -182.728 0 0 -0 -10.01 -5.8912 -17.068 3.45152 8.80457 -0.00398193 7.03055 17.5924 -0.561976 7.03057 17.5925 -0.561993 -1.03803 -18.3766 6.14705 -4.94504 -2.21188 -0.853857 11.0621 -0.808845 -15.1072 5.72222 7.12272 -10.3747 144.534 -64.4186 -177.423 4.3639 -27.7682 -12.7361 3.8627e-005 0.000176807 4.28044e-005 4.12287e-005 3.10711e-005 -0.000279903 -0.000101825 3.70143e-005 1.12721e-007 6.07814e-005 9.0303e-005 -0.000226558 -0.0128302 0.00246983 0.000199771 -4.07165e-005 -8.21497e-005 -7.78111e-005 9.62487e-006 0.000162879 -7.53063e-005 -0.0162493 0.00317836 0.000869603 3.83117e-005 0.000208657 8.58498e-006 0.000196453 9.28756e-005 -0.000131775 -0.012545 0.00312514 0.00271506 6.47157e-005 8.77597e-005 -3.04369e-005 0.000193503 0.000120834 -0.000403933 -0.000132365 5.23443e-005 0.000340874 -9.42413e-005 -2.55411e-005 -4.2187e-005 4.89851 0.04299 10.9941 -23.3412 10.8023 5.62049 -131.334 -63.7683 -149.312 -16.94 -30.4981 -6.17352 -4.6007 4.11746 5.78139 0.822482 0.28104 -0.0151071 -1.18805 -0.406364 0.0149994 -2.41992 -0.563729 3.03694 0.0913447 -0.441706 -0.0744739 -3.61106 -1.22388 -0.124986 -4.4378 -1.97167 -0.896757 0.107556 -0.600261 -0.325059 -3.85867 -1.47588 -0.267486 -3.82327 -2.76563 -1.94768 -0.168188 -0.757511 -1.57602 -3.63968 -1.34551 -0.350523 -7.49023 9.79183 6.78039 0.772677 -0.69281 -0.801256 1.44808 -3.4222 -1.02509 11.209 8.63506 13.0194 -2.02697 0.0012984 0.571402 0.676128 -0.814377 -10.1088 0.355528 2.45266 -0.148249 16.7434 0.668588 -14.3769 0.00959479 6.5624 -0.0698228 1.97231 -0.813969 -1.80622 -1.57068 3.31508 0.091841 
277.055 -0.0896225 -182.73 0 0 -0 -9.97312 -5.87722 -17.1697 3.47092 8.8433 -0.041998 7.07732 17.6673 -0.645121 7.07734 17.6673 -0.645127 -1.40527 -18.3059 6.17251 -5.0053 -2.4718 -0.678516 11.0186 -0.807436 -15.1295 5.70259 6.97822 -10.2278 145.229 -64.3078 -176.755 4.14468 -28.1676 -13.0605 4.03445e-005 0.000159979 6.88587e-005 3.60054e-005 3.57309e-005 -0.00021228 -8.26141e-005 4.44573e-005 6.47924e-006 6.02354e-005 7.27474e-005 -0.00017862 -0.0126795 0.00246841 0.000253033 -2.54025e-005 -7.43654e-005 -8.11739e-005 -8.55574e-006 0.000152533 -3.41361e-005 -0.0159834 0.00313183 0.00088478 4.65545e-005 0.000206944 8.39583e-006 0.000179512 7.16426e-005 -0.000103085 -0.0120564 0.00302035 0.00264061 6.83785e-005 0.000103488 -2.12567e-005 0.000184337 8.92301e-005 -0.000384827 -0.000120686 5.63971e-005 0.000339827 -0.00010457 -2.51337e-005 -2.25309e-005 4.89471 0.0438742 10.9639 -23.4413 10.9062 5.74912 -132.673 -63.184 -150.132 -17.2994 -31.0411 -6.04824 -4.60071 4.11745 5.78142 0.822479 0.281036 -0.0150923 -1.18804 -0.406373 0.0150107 -2.41995 -0.563734 3.03701 0.0912392 -0.441754 -0.0744555 -3.61106 -1.22388 -0.124974 -4.43782 -1.97169 -0.896722 0.107649 -0.599853 -0.325475 -3.85854 -1.47632 -0.26709 -3.82329 -2.76565 -1.94763 -0.167837 -0.757554 -1.57596 -3.63974 -1.34547 -0.35058 -7.4903 9.79174 6.78064 0.772623 -0.692557 -0.801213 1.44808 -3.42223 -1.02505 11.1675 8.60794 12.7956 -2.03911 0.00132862 0.5827 0.722323 -0.785501 -9.81613 0.316433 2.18533 -0.131338 16.6863 0.63592 -14.2632 0.0100339 6.66023 -0.0409667 2.40346 -0.87169 -1.89535 -1.53006 3.09417 0.0851099 
277.098 -0.058136 -182.761 0 0 -0 -9.85097 -5.9598 -17.1309 3.48639 8.91316 -0.10413 7.12107 17.8028 -0.778946 7.12108 17.8029 -0.778952 -1.8369 -18.524 5.57092 -4.7663 -2.66578 -0.986974 10.7929 -0.79239 -15.1662 6.04767 6.85195 -10.2702 145.943 -63.8805 -176.136 4.29278 -28.3037 -13.7212 2.11723e-005 0.000175872 0.000118054 5.17251e-005 2.97383e-005 -0.000171525 -9.24298e-005 7.64714e-005 7.68686e-005 5.29241e-005 0.000103984 -7.91713e-005 -0.0124443 0.00241626 0.000319046 -2.41665e-005 -6.69461e-005 -4.9333e-005 1.19487e-005 0.000151767 4.58151e-006 -0.0159544 0.00313092 0.000876535 4.83108e-005 0.000210111 3.85211e-005 0.000188734 6.03796e-005 -9.48313e-005 -0.0128985 0.00325844 0.00286175 7.45196e-005 0.000103514 -3.1032e-005 0.00018381 0.000120393 -0.000375304 -0.000159046 8.94782e-005 0.00037438 -0.000127743 -3.58299e-005 9.46807e-006 5.04943 0.0404789 11.0698 -23.7826 11.088 5.92024 -133.941 -62.4289 -150.799 -17.9327 -31.2763 -5.63958 -4.60072 4.11745 5.78147 0.822475 0.281031 -0.0150903 -1.18805 -0.406391 0.0150899 -2.41993 -0.563734 3.03706 0.0912276 -0.441746 -0.0744568 -3.61104 -1.22394 -0.124911 -4.43782 -1.97169 -0.89669 0.107958 -0.600421 -0.324767 -3.85873 -1.47577 -0.267607 -3.82329 -2.76564 -1.94754 -0.168246 -0.757674 -1.57583 -3.6397 -1.3455 -0.350538 -7.4903 9.79176 6.78066 0.772664 -0.692793 -0.801226 1.44807 -3.42225 -1.02497 11.0251 8.58345 12.5038 -2.02874 0.0534798 0.588351 0.92138 -0.887288 -9.68677 0.274919 1.90073 -0.113551 16.4767 0.554128 -14.3398 0.00725924 6.86966 0.000848638 3.14618 -0.899433 -2.00431 -1.55348 3.26719 0.0897168 
277.076 -0.0441971 -182.792 0 0 -0 -9.7806 -6.00316 -17.0403 3.50801 8.97784 -0.152405 7.17513 17.9287 -0.885358 7.17514 17.9288 -0.885358 -2.3522 -18.4179 3.84217 -4.44623 -3.57079 -1.95796 10.6617 -0.780509 -15.1556 6.33295 6.75491 -10.3093 146.633 -63.486 -175.533 4.07802 -28.7503 -13.8528 4.26234e-005 0.000177868 -2.10328e-006 3.57392e-005 4.17847e-005 -9.92086e-005 -7.49078e-005 0.000111865 0.000176747 6.03067e-005 9.67054e-005 -0.000280529 -0.0126584 0.0024157 0.000226591 -2.83856e-005 -1.13742e-005 -2.71459e-005 -2.67139e-005 0.000146566 0.00011279 -0.0158052 0.0030986 0.000900324 7.4506e-005 0.000290189 6.64791e-005 0.000160886 6.57364e-005 -4.03809e-006 -0.0125097 0.00315409 0.00278782 9.21392e-005 0.0001448 9.9163e-006 0.000208356 9.51966e-005 -0.000536688 -0.000173507 9.4516e-005 0.000442794 -9.75777e-005 2.80507e-006 5.8103e-005 5.13231 0.0391662 11.1082 -23.9606 11.1262 5.87955 -134.922 -61.9652 -151.37 -18.3482 -31.8806 -5.91737 -4.60073 4.11745 5.78153 0.822476 0.281029 -0.0150782 -1.18802 -0.406359 0.0149521 -2.41994 -0.563723 3.03716 0.0912345 -0.441761 -0.0744227 -3.61103 -1.22397 -0.124818 -4.43783 -1.97168 -0.89664 0.107844 -0.601139 -0.32403 -3.85899 -1.47491 -0.268385 -3.8233 -2.76562 -1.94774 -0.167937 -0.757721 -1.57574 -3.63977 -1.34522 -0.350793 -7.49052 9.79156 6.78137 0.772607 -0.692589 -0.801178 1.4481 -3.42219 -1.02512 10.9533 8.59839 12.0244 -2.011 0.0013572 0.582554 1.03891 -0.926077 -9.16991 0.256984 1.77737 -0.105891 16.3488 0.437115 -14.8153 0.00536875 7.06776 0.0397089 3.83542 -1.02015 -1.72132 -1.56072 3.32049 0.0912221 
277.079 -0.00356293 -182.823 0 0 -0 -9.66294 -6.09669 -16.7022 3.53998 9.04275 -0.218487 7.25338 18.0538 -1.02986 7.25339 18.0538 -1.02987 -2.91957 -18.5296 1.07744 -4.08788 -4.41486 -3.56054 10.3375 -0.75514 -15.1708 6.87032 6.7502 -10.4961 147.291 -62.8834 -175.009 4.36741 -29.0504 -14.0002 3.60224e-005 0.000170347 3.64097e-005 6.22918e-005 4.45404e-005 -0.000248812 -9.62668e-005 4.7131e-006 -2.76504e-005 5.08563e-005 8.39426e-005 -0.000237432 -0.0130539 0.00250505 0.000227196 6.73409e-006 1.23522e-005 3.29596e-005 2.27726e-005 0.000163421 -6.35331e-005 -0.0162828 0.00323814 0.00097427 0.000115037 0.000341876 0.000118349 0.000186319 7.41273e-005 -0.000149349 -0.0121965 0.00311507 0.00276062 0.000108371 0.000185984 4.75391e-005 0.000209736 6.97113e-005 -0.000489166 -0.000167566 4.6028e-005 0.000318289 -0.000110519 3.39259e-005 0.000151746 5.22376 0.0392561 11.1003 -24.1415 11.1572 5.74407 -136.008 -61.5393 -152.044 -19.0679 -32.0548 -5.70151 -4.60075 4.11746 5.78163 0.822498 0.281031 -0.0150015 -1.18802 -0.406376 0.014967 -2.41991 -0.563724 3.03698 0.0914171 -0.441733 -0.0743944 -3.61105 -1.22385 -0.125007 -4.43785 -1.97168 -0.896776 0.10793 -0.601074 -0.324055 -3.85899 -1.47492 -0.268361 -3.8233 -2.7656 -1.94772 -0.16801 -0.757795 -1.57561 -3.63979 -1.34523 -0.350776 -7.49054 9.79156 6.78145 0.772617 -0.692818 -0.801129 1.44811 -3.4222 -1.02509 10.8648 8.57743 10.8714 -1.96885 0.00121373 0.570165 1.26373 -0.96136 -8.46766 0.192036 1.33021 -0.0784872 16.1194 0.323603 -16.2547 6.03314e-005 7.19143 0.0516213 4.1807 -1.11804 -0.744732 -1.61453 3.7177 0.102229 
